<mxfile host="app.diagrams.net" modified="2021-08-11T01:43:57.879Z" agent="5.0 (X11)" etag="SVEpBZto8NSkI3x_Idw0" version="14.9.5" type="github">
  <diagram name="Page-1" id="e7e014a7-5840-1c2e-5031-d8a46d1fe8dd">
    <mxGraphModel dx="481" dy="1313" grid="1" gridSize="10" guides="1" tooltips="1" connect="1" arrows="1" fold="1" page="1" pageScale="1" pageWidth="1169" pageHeight="826" background="none" math="0" shadow="0">
      <root>
        <mxCell id="0" />
        <mxCell id="1" parent="0" />
        <mxCell id="-MmypGbTsIDj7He1W3D8-41" value="radeon_driver_load_kms" style="rounded=0;whiteSpace=wrap;html=1;" vertex="1" parent="1">
          <mxGeometry x="280" y="-40" width="100" height="320" as="geometry" />
        </mxCell>
        <mxCell id="-MmypGbTsIDj7He1W3D8-54" value="radeon_modeset_init" style="rounded=0;whiteSpace=wrap;html=1;" vertex="1" parent="1">
          <mxGeometry x="280" y="810" width="100" height="290" as="geometry" />
        </mxCell>
        <mxCell id="-MmypGbTsIDj7He1W3D8-58" value="radeon_acpi_init" style="rounded=0;whiteSpace=wrap;html=1;" vertex="1" parent="1">
          <mxGeometry x="280" y="1160" width="100" height="320" as="geometry" />
        </mxCell>
        <mxCell id="-MmypGbTsIDj7He1W3D8-62" value="radeon_device_init" style="rounded=0;whiteSpace=wrap;html=1;" vertex="1" parent="1">
          <mxGeometry x="280" y="500" width="100" height="260" as="geometry" />
        </mxCell>
        <mxCell id="-MmypGbTsIDj7He1W3D8-66" value="" style="rounded=0;whiteSpace=wrap;html=1;" vertex="1" parent="1">
          <mxGeometry x="280" y="310" width="100" height="140" as="geometry" />
        </mxCell>
        <mxCell id="-MmypGbTsIDj7He1W3D8-68" value="" style="endArrow=classic;html=1;exitX=0.5;exitY=1;exitDx=0;exitDy=0;entryX=0.5;entryY=0;entryDx=0;entryDy=0;" edge="1" parent="1" source="-MmypGbTsIDj7He1W3D8-41" target="-MmypGbTsIDj7He1W3D8-66">
          <mxGeometry width="50" height="50" relative="1" as="geometry">
            <mxPoint x="500" y="500" as="sourcePoint" />
            <mxPoint x="550" y="450" as="targetPoint" />
          </mxGeometry>
        </mxCell>
        <mxCell id="-MmypGbTsIDj7He1W3D8-69" value="" style="endArrow=classic;html=1;exitX=0.5;exitY=1;exitDx=0;exitDy=0;entryX=0.5;entryY=0;entryDx=0;entryDy=0;" edge="1" parent="1" source="-MmypGbTsIDj7He1W3D8-66" target="-MmypGbTsIDj7He1W3D8-62">
          <mxGeometry width="50" height="50" relative="1" as="geometry">
            <mxPoint x="340" y="290" as="sourcePoint" />
            <mxPoint x="340" y="320" as="targetPoint" />
          </mxGeometry>
        </mxCell>
        <mxCell id="-MmypGbTsIDj7He1W3D8-70" value="" style="endArrow=classic;html=1;exitX=0.5;exitY=1;exitDx=0;exitDy=0;entryX=0.5;entryY=0;entryDx=0;entryDy=0;" edge="1" parent="1" target="-MmypGbTsIDj7He1W3D8-54">
          <mxGeometry width="50" height="50" relative="1" as="geometry">
            <mxPoint x="329.66" y="760" as="sourcePoint" />
            <mxPoint x="329.66" y="790" as="targetPoint" />
          </mxGeometry>
        </mxCell>
        <mxCell id="-MmypGbTsIDj7He1W3D8-71" value="" style="endArrow=classic;html=1;entryX=0.5;entryY=0;entryDx=0;entryDy=0;" edge="1" parent="1" target="-MmypGbTsIDj7He1W3D8-58">
          <mxGeometry width="50" height="50" relative="1" as="geometry">
            <mxPoint x="330" y="1100" as="sourcePoint" />
            <mxPoint x="340" y="1000" as="targetPoint" />
          </mxGeometry>
        </mxCell>
        <mxCell id="-MmypGbTsIDj7He1W3D8-72" value="" style="endArrow=classic;html=1;exitX=0.5;exitY=1;exitDx=0;exitDy=0;" edge="1" parent="1" source="-MmypGbTsIDj7He1W3D8-58">
          <mxGeometry width="50" height="50" relative="1" as="geometry">
            <mxPoint x="500" y="1430" as="sourcePoint" />
            <mxPoint x="330" y="1540" as="targetPoint" />
          </mxGeometry>
        </mxCell>
      </root>
    </mxGraphModel>
  </diagram>
</mxfile>
